HIERARCHY
ROOT reference
{
  OFFSET 0 0 0
  CHANNELS 6 Xposition Yposition Zposition Zrotation Xrotation Yrotation
  JOINT Hips
  {
    OFFSET 15.7126 92.764 132.074
    CHANNELS 6 Xposition Yposition Zposition Zrotation Xrotation Yrotation
    JOINT Spine
    {
      OFFSET 0 7.86299 0
      CHANNELS 6 Xposition Yposition Zposition Zrotation Xrotation Yrotation
      JOINT Spine1
      {
        OFFSET 0 22.6654 0
        CHANNELS 6 Xposition Yposition Zposition Zrotation Xrotation Yrotation
        JOINT Neck
        {
          OFFSET 0 22.5723 2.05203
          CHANNELS 6 Xposition Yposition Zposition Zrotation Xrotation Yrotation
          JOINT Head
          {
            OFFSET 0 13.4246 -1.9178
            CHANNELS 6 Xposition Yposition Zposition Zrotation Xrotation Yrotation
            End Site
            {
              OFFSET 0 23.9725 0
            }
          }
        }
        JOINT LeftShoulder
        {
          OFFSET 3.7941 20.1358 -0.319195
          CHANNELS 6 Xposition Yposition Zposition Zrotation Xrotation Yrotation
          JOINT LeftArm
          {
            OFFSET 12.7665 0 0
            CHANNELS 6 Xposition Yposition Zposition Zrotation Xrotation Yrotation
            JOINT LeftForeArm
            {
              OFFSET 28.396 0 0
              CHANNELS 6 Xposition Yposition Zposition Zrotation Xrotation Yrotation
              JOINT LeftHand
              {
                OFFSET 28.7929 0 0
                CHANNELS 6 Xposition Yposition Zposition Zrotation Xrotation Yrotation
                End Site
                {
                  OFFSET 14.3835 0 0
                }
              }
            }
          }
        }
        JOINT RightShoulder
        {
          OFFSET -3.85764 20.1358 -0.319195
          CHANNELS 6 Xposition Yposition Zposition Zrotation Xrotation Yrotation
          JOINT RightArm
          {
            OFFSET -12.7665 0 0
            CHANNELS 6 Xposition Yposition Zposition Zrotation Xrotation Yrotation
            JOINT RightForeArm
            {
              OFFSET -28.396 0 0
              CHANNELS 6 Xposition Yposition Zposition Zrotation Xrotation Yrotation
              JOINT RightHand
              {
                OFFSET -28.7929 0 0
                CHANNELS 6 Xposition Yposition Zposition Zrotation Xrotation Yrotation
                End Site
                {
                  OFFSET -14.3835 0 0
                }
              }
            }
          }
        }
      }
    }
    JOINT LeftUpLeg
    {
      OFFSET 9.58901 0 0
      CHANNELS 6 Xposition Yposition Zposition Zrotation Xrotation Yrotation
      JOINT LeftLeg
      {
        OFFSET 0 -41.7092 0
        CHANNELS 6 Xposition Yposition Zposition Zrotation Xrotation Yrotation
        JOINT LeftFoot
        {
          OFFSET 0 -41.5308 0
          CHANNELS 6 Xposition Yposition Zposition Zrotation Xrotation Yrotation
          JOINT LeftToeBase
          {
            OFFSET 0 -6.23286 14.3835
            CHANNELS 6 Xposition Yposition Zposition Zrotation Xrotation Yrotation
            End Site
            {
              OFFSET 0 0 3.8356
            }
          }
        }
      }
    }
    JOINT RightUpLeg
    {
      OFFSET -9.58901 0 0
      CHANNELS 6 Xposition Yposition Zposition Zrotation Xrotation Yrotation
      JOINT RightLeg
      {
        OFFSET 0 -41.7092 0
        CHANNELS 6 Xposition Yposition Zposition Zrotation Xrotation Yrotation
        JOINT RightFoot
        {
          OFFSET 0 -41.5308 0
          CHANNELS 6 Xposition Yposition Zposition Zrotation Xrotation Yrotation
          JOINT RightToeBase
          {
            OFFSET 0 -6.23286 14.3835
            CHANNELS 6 Xposition Yposition Zposition Zrotation Xrotation Yrotation
            End Site
            {
              OFFSET 0 0 3.8356
            }
          }
        }
      }
    }
  }
}
MOTION
Frames:	9
Frame Time:	0.004
0 0 0 0 0 -0 -3.26078 83.4055 -69.4027 -1.47777 -4.41244 94.6771 7.10543e-015 7.86299 8.88178e-016 -3.31822 9.5655 -3.83002 7.10543e-015 22.6654 3.55271e-015 -0.341014 0.449759 -4.10664 1.42109e-014 22.5723 2.05203 -10.1684 25.6945 -24.393 7.10543e-015 13.4246 -1.9178 33.6341 -1.35232 -21.4363 3.7941 20.1358 -0.319195 9.63006 7.04843 3.17803 12.7665 0 7.10543e-015 -12.1446 -0.49532 -2.11345 28.396 0 0 4.72981 12.1752 -5.43883 28.7929 0 0 29.8952 11.9216 -1.81375 -3.85764 20.1358 -0.319195 -2.08695 16.5905 4.33402 -12.7665 0 -7.10543e-015 12.162 5.36539 -0.512842 -28.396 -1.42109e-014 1.42109e-014 0.527646 7.91219 2.43392 -28.7929 -1.42109e-014 0 -24.1788 10.5886 -12.6597 9.58901 1.42109e-014 0 34.2074 -20.3366 7.56963 0 -41.7092 0 -36.2149 41.275 20.5847 0 -41.5308 3.55271e-015 2.31642 -14.0756 20.2744 0 -6.23286 14.3835 3.97569e-016 1.3418e-015 -3.18055e-015 -9.58901 0 8.88178e-016 -4.35643 -18.6946 -4.76911 7.10543e-015 -41.7092 -7.10543e-015 4.64632 40.6476 -2.18544 0 -41.5308 -3.55271e-015 -5.03607 -27.9308 -13.7839 0 -6.23286 14.3835 0 5.96354e-016 -0 
0 0 0 0 0 -0 -3.2255 83.4313 -69.234 -1.50039 -4.40865 94.6908 0 7.86299 0 -3.24423 9.52528 -3.8262 0 22.6654 0 -0.406763 0.494164 -4.09506 0 22.5723 2.05203 -10.0679 25.6571 -24.425 0 13.4246 -1.9178 33.5115 -1.37155 -21.4702 3.7941 20.1358 -0.319195 9.63868 7.08784 3.17758 12.7665 0 0 -12.1908 -0.397526 -2.14044 28.396 0 -7.10543e-015 4.60774 12.2142 -5.31287 28.7929 -1.42109e-014 1.42109e-014 29.8313 11.9419 -1.84835 -3.85764 20.1358 -0.319195 -2.05521 16.57 4.27091 -12.7665 0 -7.10543e-015 12.1359 5.34876 -0.524937 -28.396 -1.42109e-014 0 0.554049 7.90721 2.45306 -28.7929 0 -1.42109e-014 -24.2553 10.5831 -12.6192 9.58901 -1.42109e-014 1.77636e-015 33.853 -20.4612 7.97923 0 -41.7092 3.55271e-015 -36.9314 41.6905 20.9409 1.42109e-014 -41.5308 0 2.43514 -14.5994 20.1616 -1.42109e-014 -6.23286 14.3835 5.46658e-016 7.45443e-016 3.18055e-015 -9.58901 1.42109e-014 8.88178e-016 -4.21458 -18.6753 -4.77378 0 -41.7092 0 4.60351 40.6087 -2.0906 0 -41.5308 0 -5.23329 -27.9347 -13.9318 0 -6.23286 14.3835 -4.41391e-032 -7.95139e-016 -3.18055e-015 
0 0 0 0 0 -0 -3.18546 83.4561 -69.0716 -1.519 -4.40561 94.6928 0 7.86299 0 -3.18985 9.46285 -3.81 -7.10543e-015 22.6654 0 -0.375618 0.528605 -4.07257 0 22.5723 2.05203 -10.2412 25.7006 -24.3941 0 13.4246 -1.9178 33.643 -1.32032 -21.4532 3.7941 20.1358 -0.319195 9.4916 7.32331 3.20374 12.7665 1.42109e-014 -7.10543e-015 -12.1771 -0.525298 -2.26953 28.396 0 7.10543e-015 4.49875 12.1789 -5.19066 28.7929 0 1.42109e-014 29.7012 11.9331 -1.71745 -3.85764 20.1358 -0.319195 -2.1583 16.6169 4.24649 -12.7665 -2.84217e-014 0 12.1209 5.16188 -0.444521 -28.396 0 0 0.665071 7.93691 2.29993 -28.7929 0 -1.42109e-014 -24.267 10.6173 -12.6419 9.58901 1.42109e-014 0 33.4811 -20.5663 8.39865 1.42109e-014 -41.7092 0 -37.5854 42.0962 21.3473 0 -41.5308 -7.10543e-015 2.10179 -15.0188 19.9707 0 -6.23286 14.3835 -1.98785e-016 0 9.54166e-015 -9.58901 0 0 -4.07058 -18.6493 -4.77654 0 -41.7092 -3.55271e-015 4.54387 40.5524 -2.0355 0 -41.5308 7.10543e-015 -5.48292 -27.9244 -14.0032 0 -6.23286 14.3835 -0 -7.95139e-016 -0 
0 0 0 0 0 -0 -3.14567 83.4809 -68.908 -1.55444 -4.40705 94.6895 7.10543e-015 7.86299 0 -3.10955 9.39573 -3.81013 0 22.6654 3.55271e-015 -0.450191 0.562454 -4.06932 0 22.5723 2.05203 -10.1712 25.6946 -24.3618 0 13.4246 -1.9178 33.5843 -1.34861 -21.4118 3.7941 20.1358 -0.319195 9.50374 7.21823 3.15928 12.7665 0 0 -12.2864 0.01743 -2.13425 28.396 -2.84217e-014 0 4.58302 11.9704 -5.15321 28.7929 1.42109e-014 0 29.7117 11.7441 -1.64992 -3.85764 20.1358 -0.319195 -2.16082 16.6146 4.24883 -12.7665 0 7.10543e-015 12.1164 5.11216 -0.455192 -28.396 1.42109e-014 1.42109e-014 0.67996 7.9562 2.2895 -28.7929 0 -1.42109e-014 -24.1835 10.6168 -12.5957 9.58901 -1.42109e-014 0 33.1096 -20.6709 8.83917 0 -41.7092 -3.55271e-015 -38.2744 42.4726 21.809 1.42109e-014 -41.5308 0 2.00319 -15.6076 19.7981 0 -6.23286 14.3835 1.19271e-015 -1.98785e-016 -0 -9.58901 0 0 -3.92468 -18.6378 -4.75822 -7.10543e-015 -41.7092 0 4.51671 40.5051 -1.95712 0 -41.5308 0 -5.65379 -27.9609 -14.1817 -7.10543e-015 -6.23286 14.3835 -7.72434e-032 -1.39149e-015 -3.18055e-015 
0 0 0 0 0 -0 -3.10694 83.5065 -68.7483 -1.59381 -4.42381 94.677 -1.42109e-014 7.86299 0 -3.02236 9.32824 -3.81297 -7.10543e-015 22.6654 0 -0.514327 0.603858 -4.05714 1.42109e-014 22.5723 2.05203 -10.0855 25.6024 -24.365 7.10543e-015 13.4246 -1.9178 33.4174 -1.27819 -21.4436 3.7941 20.1358 -0.319195 9.50585 7.43435 3.27473 12.7665 -1.42109e-014 -7.10543e-015 -12.3434 -0.072503 -2.30525 28.396 0 0 4.50138 11.937 -5.06239 28.7929 -1.42109e-014 1.42109e-014 29.5674 11.7159 -1.61068 -3.85764 20.1358 -0.319195 -2.13339 16.4284 4.26175 -12.7665 0 0 12.1254 5.28211 -0.559575 -28.396 1.42109e-014 -1.42109e-014 0.668359 7.94503 2.32024 -28.7929 0 0 -24.1198 10.6034 -12.6185 9.58901 0 0 32.744 -20.7591 9.27603 -1.42109e-014 -41.7092 -3.55271e-015 -38.9051 42.8058 22.1363 0 -41.5308 1.77636e-015 1.92354 -16.0647 19.341 0 -6.23286 14.3835 -7.95139e-016 -3.97569e-016 -9.54166e-015 -9.58901 0 0 -3.76919 -18.6404 -4.70791 0 -41.7092 0 4.51545 40.4587 -1.91693 0 -41.5308 3.55271e-015 -5.89517 -27.9138 -14.2988 0 -6.23286 14.3835 -1.59028e-015 -5.96354e-016 -0 
0 0 0 0 0 -0 -3.06988 83.5369 -68.5862 -1.64258 -4.4404 94.6841 7.10543e-015 7.86299 8.88178e-016 -2.93534 9.2427 -3.81284 0 22.6654 -3.55271e-015 -0.517571 0.60945 -4.04765 7.10543e-015 22.5723 2.05203 -10.1834 25.6958 -24.3209 -7.10543e-015 13.4246 -1.9178 33.4703 -1.3116 -21.3974 3.7941 20.1358 -0.319195 9.40115 7.49096 3.22222 12.7665 0 0 -12.3514 -0.034344 -2.26958 28.396 2.84217e-014 -7.10543e-015 4.40497 12.0343 -4.94761 28.7929 1.42109e-014 1.42109e-014 29.413 11.7953 -1.65608 -3.85764 20.1358 -0.319195 -2.19529 16.4419 4.27188 -12.7665 0 -7.10543e-015 12.1391 5.21886 -0.586107 -28.396 0 0 0.673188 7.92755 2.3243 -28.7929 -1.42109e-014 1.42109e-014 -24.087 10.5948 -12.6775 9.58901 0 8.88178e-016 32.3542 -20.8742 9.69447 1.42109e-014 -41.7092 0 -39.5184 43.119 22.7565 -1.42109e-014 -41.5308 0 1.09192 -16.5135 18.723 1.42109e-014 -6.23286 14.3835 -7.95139e-016 3.97569e-016 3.18055e-015 -9.58901 0 -8.88178e-016 -3.61673 -18.6367 -4.68691 -7.10543e-015 -41.7092 3.55271e-015 4.50029 40.3914 -1.86877 -7.10543e-015 -41.5308 1.77636e-015 -6.05613 -27.8946 -14.4234 -7.10543e-015 -6.23286 14.3835 -2.75869e-032 9.93923e-016 1.59028e-015 
0 0 0 0 0 -0 -3.03219 83.5673 -68.4342 -1.69683 -4.45241 94.6869 0 7.86299 1.77636e-015 -2.86036 9.1663 -3.82419 7.10543e-015 22.6654 0 -0.573122 0.604617 -4.04655 0 22.5723 2.05203 -10.1471 25.7412 -24.2926 -7.10543e-015 13.4246 -1.9178 33.4627 -1.32979 -21.364 3.7941 20.1358 -0.319195 9.40258 7.53365 3.21781 12.7665 0 -7.10543e-015 -12.418 0.110927 -2.2226 28.396 0 7.10543e-015 4.38335 12.0125 -4.91174 28.7929 -2.84217e-014 1.42109e-014 29.0156 11.7953 -1.58476 -3.85764 20.1358 -0.319195 -2.21127 16.6627 4.21089 -12.7665 2.84217e-014 -7.10543e-015 12.1193 4.99874 -0.455312 -28.396 0 0 0.694486 7.92382 2.32027 -28.7929 1.42109e-014 0 -24.0694 10.5974 -12.7189 9.58901 0 8.88178e-016 31.9464 -20.9853 10.1366 0 -41.7092 -3.55271e-015 -40.0542 43.4264 22.9867 0 -41.5308 -3.55271e-015 1.18627 -16.9609 18.283 0 -6.23286 14.3835 -7.95139e-016 2.38542e-015 -0 -9.58901 -1.42109e-014 8.88178e-016 -3.47721 -18.6378 -4.67146 -7.10543e-015 -41.7092 -3.55271e-015 4.47194 40.3151 -1.83578 0 -41.5308 -1.77636e-015 -6.21612 -27.8655 -14.4981 0 -6.23286 14.3835 -1.59028e-015 -1.59028e-015 -0 
0 0 0 0 0 -0 -2.99343 83.5973 -68.2824 -1.74449 -4.47415 94.6921 -1.42109e-014 7.86299 0 -2.77501 9.09658 -3.83498 0 22.6654 0 -0.645236 0.624798 -4.04711 7.10543e-015 22.5723 2.05203 -9.99682 25.7495 -24.3185 0 13.4246 -1.9178 33.3284 -1.40207 -21.3775 3.7941 20.1358 -0.319195 9.45245 7.63201 3.25405 12.7665 2.84217e-014 -7.10543e-015 -12.5303 0.079975 -2.22713 28.396 2.84217e-014 0 4.36992 12.0022 -4.90771 28.7929 -1.42109e-014 -1.42109e-014 28.8336 11.8021 -1.52477 -3.85764 20.1358 -0.319195 -2.17856 16.6199 4.17016 -12.7665 2.84217e-014 -7.10543e-015 12.1193 5.18249 -0.447372 -28.396 -1.42109e-014 1.42109e-014 0.6468 7.87893 2.36091 -28.7929 0 -1.42109e-014 -23.8865 10.5306 -12.7092 9.58901 1.42109e-014 0 31.5301 -21.088 10.5554 0 -41.7092 -7.10543e-015 -40.5745 43.8606 22.5757 -1.42109e-014 -41.5308 -3.55271e-015 1.18965 -17.3372 18.5054 0 -6.23286 14.3835 -7.95139e-016 -7.95139e-016 -6.36111e-015 -9.58901 1.42109e-014 8.88178e-016 -3.33096 -18.6213 -4.59035 0 -41.7092 0 4.51064 40.2171 -1.90269 7.10543e-015 -41.5308 3.55271e-015 -6.3413 -27.8496 -14.5635 0 -6.23286 14.3835 -1.10348e-032 3.97569e-016 1.59028e-015 
0 0 0 0 0 -0 -2.95461 83.6312 -68.1384 -1.80432 -4.49227 94.7024 -7.10543e-015 7.86299 0 -2.68126 8.99299 -3.84156 0 22.6654 0 -0.677713 0.651068 -4.04881 7.10543e-015 22.5723 2.05203 -10.0245 25.7834 -24.3179 7.10543e-015 13.4246 -1.9178 33.3094 -1.40275 -21.3857 3.7941 20.1358 -0.319195 9.40006 7.68428 3.25537 12.7665 -2.84217e-014 1.42109e-014 -12.5677 0.063019 -2.23202 28.396 0 0 4.29884 12.0764 -4.83969 28.7929 1.42109e-014 -1.42109e-014 28.7187 11.8732 -1.52137 -3.85764 20.1358 -0.319195 -2.19417 16.6082 4.14617 -12.7665 2.84217e-014 -1.42109e-014 12.0954 5.1663 -0.429917 -28.396 -1.42109e-014 0 0.672325 7.87867 2.33952 -28.7929 0 -1.42109e-014 -23.8607 10.5223 -12.687 9.58901 0 0 31.0895 -21.1794 10.944 0 -41.7092 0 -41.0832 44.1569 22.6707 0 -41.5308 0 0.685432 -17.6668 18.3369 0 -6.23286 14.3835 1.59028e-015 1.59028e-015 -1.27222e-014 -9.58901 -1.42109e-014 -8.88178e-016 -3.20393 -18.6127 -4.54306 0 -41.7092 0 4.53638 40.1125 -1.916 7.10543e-015 -41.5308 0 -6.47868 -27.8153 -14.646 0 -6.23286 14.3835 1.59028e-015 -5.96354e-016 1.59028e-015 
